<?xml version="1.0" encoding="UTF-8"?>
<svg xmlns="http://www.w3.org/2000/svg" xmlns:xlink="http://www.w3.org/1999/xlink" viewBox="0 0 720 250">
  <defs>
    <style>
      .cls-1 {
        fill: url(#linear-gradient-2);
      }

      .cls-2 {
        fill: url(#linear-gradient-4);
      }

      .cls-2, .cls-3 {
        mix-blend-mode: screen;
        opacity: .5;
      }

      .cls-4 {
        fill: #375895;
      }

      .cls-5 {
        fill: #b9d1ef;
      }

      .cls-6 {
        letter-spacing: 0em;
      }

      .cls-7 {
        fill: #fdffff;
      }

      .cls-8 {
        isolation: isolate;
      }

      .cls-9 {
        fill: #476796;
      }

      .cls-10 {
        fill: #598bca;
      }

      .cls-11 {
        fill: #2c4773;
      }

      .cls-12 {
        stroke: #a7c2df;
      }

      .cls-12, .cls-13, .cls-14 {
        fill: none;
        stroke-linecap: round;
        stroke-linejoin: round;
        stroke-width: 1.5px;
      }

      .cls-15 {
        letter-spacing: -.01em;
      }

      .cls-16 {
        fill: #b6cbe2;
      }

      .cls-17 {
        letter-spacing: 0em;
      }

      .cls-13 {
        stroke: #456fa6;
      }

      .cls-18 {
        fill: #4976ba;
      }

      .cls-19 {
        fill: #456fa6;
      }

      .cls-20 {
        font-size: 18px;
      }

      .cls-20, .cls-21 {
        font-family: Montserrat-Bold, Montserrat;
        font-weight: 700;
      }

      .cls-22 {
        letter-spacing: -.02em;
      }

      .cls-3 {
        fill: url(#linear-gradient-3);
      }

      .cls-23 {
        letter-spacing: -.01em;
      }

      .cls-24 {
        fill: #cddffa;
      }

      .cls-25 {
        fill: #a7c2df;
      }

      .cls-21 {
        font-size: 36px;
      }

      .cls-26 {
        fill: #9fb8d0;
      }

      .cls-27 {
        letter-spacing: 0em;
      }

      .cls-28 {
        letter-spacing: -.02em;
      }

      .cls-29 {
        fill: #edf4ff;
      }

      .cls-30 {
        letter-spacing: .02em;
      }

      .cls-31 {
        fill: #f1f1f1;
      }

      .cls-32 {
        letter-spacing: 0em;
      }

      .cls-33 {
        fill: url(#linear-gradient);
      }

      .cls-14 {
        stroke: #2c4773;
      }

      .cls-34 {
        letter-spacing: 0em;
      }

      .cls-35 {
        letter-spacing: -.02em;
      }
    </style>
    <linearGradient id="linear-gradient" x1="359.48" y1="-1.12" x2="359.48" y2="250.16" gradientUnits="userSpaceOnUse">
      <stop offset="0" stop-color="#fff"/>
      <stop offset=".08" stop-color="#e4e4e4"/>
      <stop offset=".18" stop-color="#cdcdcd"/>
      <stop offset=".29" stop-color="#bbb"/>
      <stop offset=".42" stop-color="#afafaf"/>
      <stop offset=".59" stop-color="#a8a8a8"/>
      <stop offset="1" stop-color="#a6a6a6"/>
    </linearGradient>
    <linearGradient id="linear-gradient-2" x1="359.48" y1="-1.12" x2="359.48" y2="250.16" xlink:href="#linear-gradient"/>
    <linearGradient id="linear-gradient-3" x1="359.48" y1=".72" x2="359.48" y2="248.32" xlink:href="#linear-gradient"/>
    <linearGradient id="linear-gradient-4" y1=".44" y2="249.43" xlink:href="#linear-gradient"/>
  </defs>
  <g class="cls-8">
    <g id="OBJECT">
      <g id="Offset_Group" data-name="Offset Group">
        <g>
          <path class="cls-24" d="m698.84-1.12H20.13C20.13,8.11,11.6,15.6,1.08,15.6v10.9c3.15,0,5.71,2.24,5.71,5.01s-2.56,5.01-5.71,5.01v8.74c3.15,0,5.71,2.24,5.71,5.01s-2.56,5.01-5.71,5.01v8.74c3.15,0,5.71,2.24,5.71,5.01s-2.56,5.01-5.71,5.01v8.74c3.15,0,5.71,2.24,5.71,5.01s-2.56,5.01-5.71,5.01v14.95c10.55,0,19.1,7.51,19.1,16.77s-8.55,16.77-19.1,16.77v12.37c3.15,0,5.71,2.24,5.71,5.01s-2.56,5.01-5.71,5.01v8.74c3.15,0,5.71,2.24,5.71,5.01s-2.56,5.01-5.71,5.01v8.74c3.15,0,5.71,2.24,5.71,5.01s-2.56,5.01-5.71,5.01v8.74c3.15,0,5.71,2.24,5.71,5.01s-2.56,5.01-5.71,5.01v13.48c10.52,0,19.05,7.48,19.05,16.72h678.71c0-9.23,8.53-16.72,19.05-16.72v-13.48c-3.15,0-5.71-2.24-5.71-5.01s2.56-5.01,5.71-5.01v-8.74c-3.15,0-5.71-2.24-5.71-5.01s2.56-5.01,5.71-5.01v-8.74c-3.15,0-5.71-2.24-5.71-5.01s2.56-5.01,5.71-5.01v-8.74c-3.15,0-5.71-2.24-5.71-5.01s2.56-5.01,5.71-5.01v-12.37c-10.55,0-19.1-7.51-19.1-16.77s8.55-16.77,19.1-16.77v-14.95c-3.15,0-5.71-2.24-5.71-5.01s2.56-5.01,5.71-5.01v-8.74c-3.15,0-5.71-2.24-5.71-5.01s2.56-5.01,5.71-5.01v-8.74c-3.15,0-5.71-2.24-5.71-5.01s2.56-5.01,5.71-5.01v-8.74c-3.15,0-5.71-2.24-5.71-5.01s2.56-5.01,5.71-5.01v-10.9c-10.52,0-19.05-7.48-19.05-16.72Zm16.95,18.47v7.56c-1.31.32-2.49.94-3.42,1.76-1.41,1.24-2.29,2.95-2.29,4.85s.88,3.61,2.29,4.85c.93.82,2.11,1.44,3.42,1.76v5.56c-1.31.32-2.49.94-3.42,1.76-1.41,1.24-2.29,2.95-2.29,4.85s.88,3.61,2.29,4.85c.93.82,2.11,1.43,3.42,1.76v5.56c-1.31.32-2.49.94-3.42,1.76-1.41,1.24-2.29,2.95-2.29,4.85s.88,3.61,2.29,4.85c.93.82,2.11,1.44,3.42,1.76v5.56c-1.31.32-2.49.94-3.42,1.76-1.41,1.24-2.29,2.95-2.29,4.85s.88,3.61,2.29,4.85c.93.82,2.11,1.44,3.42,1.76v11.61c-5.02.43-9.52,2.4-12.89,5.36-3.83,3.37-6.21,8.02-6.21,13.16s2.38,9.79,6.21,13.16c3.36,2.95,7.85,4.92,12.85,5.36h.04v9.03c-1.31.32-2.49.94-3.42,1.76-1.41,1.24-2.29,2.95-2.29,4.85s.88,3.61,2.29,4.85c.93.82,2.11,1.44,3.42,1.76v5.56c-1.31.32-2.49.94-3.42,1.76-1.41,1.24-2.29,2.95-2.29,4.85s.88,3.61,2.29,4.85c.93.82,2.11,1.43,3.42,1.76v5.56c-1.31.32-2.49.94-3.42,1.76-1.41,1.24-2.29,2.95-2.29,4.85s.88,3.61,2.29,4.85c.93.82,2.11,1.44,3.42,1.76v5.56c-1.31.32-2.49.94-3.42,1.76-1.41,1.24-2.29,2.95-2.29,4.85s.88,3.61,2.29,4.85c.93.82,2.11,1.43,3.42,1.76v10.14c-5,.43-9.49,2.4-12.85,5.35-3.36,2.95-5.6,6.89-6.09,11.28H22.12c-.49-4.39-2.73-8.33-6.09-11.28-3.35-2.94-7.83-4.9-12.82-5.34h-.04v-10.14c1.31-.32,2.49-.94,3.42-1.76,1.41-1.24,2.29-2.95,2.29-4.85s-.88-3.61-2.29-4.85c-.93-.82-2.11-1.44-3.42-1.76v-5.56c1.31-.32,2.49-.94,3.42-1.76,1.41-1.24,2.29-2.95,2.29-4.85s-.88-3.61-2.29-4.85c-.93-.82-2.11-1.43-3.42-1.76v-5.56c1.31-.32,2.49-.94,3.42-1.76,1.41-1.24,2.29-2.95,2.29-4.85s-.88-3.61-2.29-4.85c-.93-.82-2.11-1.44-3.42-1.76v-5.56c1.31-.32,2.49-.94,3.42-1.76,1.41-1.24,2.29-2.95,2.29-4.85s-.88-3.61-2.29-4.85c-.93-.82-2.11-1.44-3.42-1.76v-9.03c5.02-.43,9.52-2.4,12.89-5.36,3.83-3.37,6.21-8.02,6.21-13.16s-2.38-9.79-6.21-13.16c-3.36-2.95-7.85-4.92-12.85-5.36h-.04v-11.61c1.31-.32,2.49-.94,3.42-1.76,1.41-1.24,2.29-2.95,2.29-4.85s-.88-3.61-2.29-4.85c-.93-.82-2.11-1.44-3.42-1.76v-5.56c1.31-.32,2.49-.94,3.42-1.76,1.41-1.24,2.29-2.95,2.29-4.85s-.88-3.61-2.29-4.85c-.93-.82-2.11-1.43-3.42-1.76v-5.56c1.31-.32,2.49-.94,3.42-1.76,1.41-1.24,2.29-2.95,2.29-4.85s-.88-3.61-2.29-4.85c-.93-.82-2.11-1.44-3.42-1.76v-5.56c1.31-.32,2.49-.94,3.42-1.76,1.41-1.24,2.29-2.95,2.29-4.85s-.88-3.61-2.29-4.85c-.93-.82-2.11-1.44-3.42-1.76v-7.56c5-.43,9.49-2.4,12.85-5.35,3.36-2.95,5.6-6.89,6.09-11.28h674.72c.49,4.39,2.73,8.33,6.09,11.28,3.35,2.94,7.83,4.9,12.82,5.34h.04Z"/>
          <path class="cls-33" d="m698.84-1.12H20.13C20.13,8.11,11.6,15.6,1.08,15.6v10.9c3.15,0,5.71,2.24,5.71,5.01s-2.56,5.01-5.71,5.01v8.74c3.15,0,5.71,2.24,5.71,5.01s-2.56,5.01-5.71,5.01v8.74c3.15,0,5.71,2.24,5.71,5.01s-2.56,5.01-5.71,5.01v8.74c3.15,0,5.71,2.24,5.71,5.01s-2.56,5.01-5.71,5.01v14.95c10.55,0,19.1,7.51,19.1,16.77s-8.55,16.77-19.1,16.77v12.37c3.15,0,5.71,2.24,5.71,5.01s-2.56,5.01-5.71,5.01v8.74c3.15,0,5.71,2.24,5.71,5.01s-2.56,5.01-5.71,5.01v8.74c3.15,0,5.71,2.24,5.71,5.01s-2.56,5.01-5.71,5.01v8.74c3.15,0,5.71,2.24,5.71,5.01s-2.56,5.01-5.71,5.01v13.48c10.52,0,19.05,7.48,19.05,16.72h678.71c0-9.23,8.53-16.72,19.05-16.72v-13.48c-3.15,0-5.71-2.24-5.71-5.01s2.56-5.01,5.71-5.01v-8.74c-3.15,0-5.71-2.24-5.71-5.01s2.56-5.01,5.71-5.01v-8.74c-3.15,0-5.71-2.24-5.71-5.01s2.56-5.01,5.71-5.01v-8.74c-3.15,0-5.71-2.24-5.71-5.01s2.56-5.01,5.71-5.01v-12.37c-10.55,0-19.1-7.51-19.1-16.77s8.55-16.77,19.1-16.77v-14.95c-3.15,0-5.71-2.24-5.71-5.01s2.56-5.01,5.71-5.01v-8.74c-3.15,0-5.71-2.24-5.71-5.01s2.56-5.01,5.71-5.01v-8.74c-3.15,0-5.71-2.24-5.71-5.01s2.56-5.01,5.71-5.01v-8.74c-3.15,0-5.71-2.24-5.71-5.01s2.56-5.01,5.71-5.01v-10.9c-10.52,0-19.05-7.48-19.05-16.72Zm16.95,18.47v7.56c-1.31.32-2.49.94-3.42,1.76-1.41,1.24-2.29,2.95-2.29,4.85s.88,3.61,2.29,4.85c.93.82,2.11,1.44,3.42,1.76v5.56c-1.31.32-2.49.94-3.42,1.76-1.41,1.24-2.29,2.95-2.29,4.85s.88,3.61,2.29,4.85c.93.82,2.11,1.43,3.42,1.76v5.56c-1.31.32-2.49.94-3.42,1.76-1.41,1.24-2.29,2.95-2.29,4.85s.88,3.61,2.29,4.85c.93.82,2.11,1.44,3.42,1.76v5.56c-1.31.32-2.49.94-3.42,1.76-1.41,1.24-2.29,2.95-2.29,4.85s.88,3.61,2.29,4.85c.93.82,2.11,1.44,3.42,1.76v11.61c-5.02.43-9.52,2.4-12.89,5.36-3.83,3.37-6.21,8.02-6.21,13.16s2.38,9.79,6.21,13.16c3.36,2.95,7.85,4.92,12.85,5.36h.04v9.03c-1.31.32-2.49.94-3.42,1.76-1.41,1.24-2.29,2.95-2.29,4.85s.88,3.61,2.29,4.85c.93.82,2.11,1.44,3.42,1.76v5.56c-1.31.32-2.49.94-3.42,1.76-1.41,1.24-2.29,2.95-2.29,4.85s.88,3.61,2.29,4.85c.93.82,2.11,1.43,3.42,1.76v5.56c-1.31.32-2.49.94-3.42,1.76-1.41,1.24-2.29,2.95-2.29,4.85s.88,3.61,2.29,4.85c.93.82,2.11,1.44,3.42,1.76v5.56c-1.31.32-2.49.94-3.42,1.76-1.41,1.24-2.29,2.95-2.29,4.85s.88,3.61,2.29,4.85c.93.82,2.11,1.43,3.42,1.76v10.14c-5,.43-9.49,2.4-12.85,5.35-3.36,2.95-5.6,6.89-6.09,11.28H22.12c-.49-4.39-2.73-8.33-6.09-11.28-3.35-2.94-7.83-4.9-12.82-5.34h-.04v-10.14c1.31-.32,2.49-.94,3.42-1.76,1.41-1.24,2.29-2.95,2.29-4.85s-.88-3.61-2.29-4.85c-.93-.82-2.11-1.44-3.42-1.76v-5.56c1.31-.32,2.49-.94,3.42-1.76,1.41-1.24,2.29-2.95,2.29-4.85s-.88-3.61-2.29-4.85c-.93-.82-2.11-1.43-3.42-1.76v-5.56c1.31-.32,2.49-.94,3.42-1.76,1.41-1.24,2.29-2.95,2.29-4.85s-.88-3.61-2.29-4.85c-.93-.82-2.11-1.44-3.42-1.76v-5.56c1.31-.32,2.49-.94,3.42-1.76,1.41-1.24,2.29-2.95,2.29-4.85s-.88-3.61-2.29-4.85c-.93-.82-2.11-1.44-3.42-1.76v-9.03c5.02-.43,9.52-2.4,12.89-5.36,3.83-3.37,6.21-8.02,6.21-13.16s-2.38-9.79-6.21-13.16c-3.36-2.95-7.85-4.92-12.85-5.36h-.04v-11.61c1.31-.32,2.49-.94,3.42-1.76,1.41-1.24,2.29-2.95,2.29-4.85s-.88-3.61-2.29-4.85c-.93-.82-2.11-1.44-3.42-1.76v-5.56c1.31-.32,2.49-.94,3.42-1.76,1.41-1.24,2.29-2.95,2.29-4.85s-.88-3.61-2.29-4.85c-.93-.82-2.11-1.43-3.42-1.76v-5.56c1.31-.32,2.49-.94,3.42-1.76,1.41-1.24,2.29-2.95,2.29-4.85s-.88-3.61-2.29-4.85c-.93-.82-2.11-1.44-3.42-1.76v-5.56c1.31-.32,2.49-.94,3.42-1.76,1.41-1.24,2.29-2.95,2.29-4.85s-.88-3.61-2.29-4.85c-.93-.82-2.11-1.44-3.42-1.76v-7.56c5-.43,9.49-2.4,12.85-5.35,3.36-2.95,5.6-6.89,6.09-11.28h674.72c.49,4.39,2.73,8.33,6.09,11.28,3.35,2.94,7.83,4.9,12.82,5.34h.04Z"/>
          <path class="cls-24" d="m696.84.72H22.12c-.49,4.39-2.73,8.33-6.09,11.28-3.36,2.95-7.85,4.91-12.85,5.35v7.56c1.31.32,2.49.94,3.42,1.76,1.41,1.24,2.29,2.95,2.29,4.85s-.88,3.61-2.29,4.85c-.93.82-2.11,1.44-3.42,1.76v5.56c1.31.32,2.49.94,3.42,1.76,1.41,1.24,2.29,2.95,2.29,4.85s-.88,3.61-2.29,4.85c-.93.82-2.11,1.43-3.42,1.76v5.56c1.31.32,2.49.94,3.42,1.76,1.41,1.24,2.29,2.95,2.29,4.85s-.88,3.61-2.29,4.85c-.93.82-2.11,1.44-3.42,1.76v5.56c1.31.32,2.49.94,3.42,1.76,1.41,1.24,2.29,2.95,2.29,4.85s-.88,3.61-2.29,4.85c-.93.82-2.11,1.44-3.42,1.76v11.61h.04c5,.44,9.49,2.41,12.85,5.36,3.83,3.37,6.21,8.02,6.21,13.16s-2.38,9.79-6.21,13.16c-3.37,2.96-7.88,4.93-12.89,5.36v9.03c1.31.32,2.49.94,3.42,1.76,1.41,1.24,2.29,2.95,2.29,4.85s-.88,3.61-2.29,4.85c-.93.82-2.11,1.44-3.42,1.76v5.56c1.31.32,2.49.94,3.42,1.76,1.41,1.24,2.29,2.95,2.29,4.85s-.88,3.61-2.29,4.85c-.93.82-2.11,1.43-3.42,1.76v5.56c1.31.32,2.49.94,3.42,1.76,1.41,1.24,2.29,2.95,2.29,4.85s-.88,3.61-2.29,4.85c-.93.82-2.11,1.44-3.42,1.76v5.56c1.31.32,2.49.94,3.42,1.76,1.41,1.24,2.29,2.95,2.29,4.85s-.88,3.61-2.29,4.85c-.93.82-2.11,1.43-3.42,1.76v10.14h.04c4.99.44,9.47,2.4,12.82,5.35,3.36,2.95,5.6,6.89,6.09,11.28h674.72c.49-4.39,2.73-8.33,6.09-11.28,3.36-2.95,7.85-4.91,12.85-5.35v-10.14c-1.31-.32-2.49-.94-3.42-1.76-1.41-1.24-2.29-2.95-2.29-4.85s.88-3.61,2.29-4.85c.93-.82,2.11-1.44,3.42-1.76v-5.56c-1.31-.32-2.49-.94-3.42-1.76-1.41-1.24-2.29-2.95-2.29-4.85s.88-3.61,2.29-4.85c.93-.82,2.11-1.43,3.42-1.76v-5.56c-1.31-.32-2.49-.94-3.42-1.76-1.41-1.24-2.29-2.95-2.29-4.85s.88-3.61,2.29-4.85c.93-.82,2.11-1.44,3.42-1.76v-5.56c-1.31-.32-2.49-.94-3.42-1.76-1.41-1.24-2.29-2.95-2.29-4.85s.88-3.61,2.29-4.85c.93-.82,2.11-1.44,3.42-1.76v-9.03h-.04c-5-.44-9.49-2.41-12.85-5.36-3.83-3.37-6.21-8.02-6.21-13.16s2.38-9.79,6.21-13.16c3.37-2.96,7.88-4.93,12.89-5.36v-11.61c-1.31-.32-2.49-.94-3.42-1.76-1.41-1.24-2.29-2.95-2.29-4.85s.88-3.61,2.29-4.85c.93-.82,2.11-1.44,3.42-1.76v-5.56c-1.31-.32-2.49-.94-3.42-1.76-1.41-1.24-2.29-2.95-2.29-4.85s.88-3.61,2.29-4.85c.93-.82,2.11-1.43,3.42-1.76v-5.56c-1.31-.32-2.49-.94-3.42-1.76-1.41-1.24-2.29-2.95-2.29-4.85s.88-3.61,2.29-4.85c.93-.82,2.11-1.44,3.42-1.76v-5.56c-1.31-.32-2.49-.94-3.42-1.76-1.41-1.24-2.29-2.95-2.29-4.85s.88-3.61,2.29-4.85c.93-.82,2.11-1.44,3.42-1.76v-7.56h-.04c-4.99-.44-9.47-2.4-12.82-5.35-3.36-2.95-5.6-6.89-6.09-11.28Z"/>
          <path class="cls-1" d="m696.84.72H22.12c-.49,4.39-2.73,8.33-6.09,11.28-3.36,2.95-7.85,4.91-12.85,5.35v7.56c1.31.32,2.49.94,3.42,1.76,1.41,1.24,2.29,2.95,2.29,4.85s-.88,3.61-2.29,4.85c-.93.82-2.11,1.44-3.42,1.76v5.56c1.31.32,2.49.94,3.42,1.76,1.41,1.24,2.29,2.95,2.29,4.85s-.88,3.61-2.29,4.85c-.93.82-2.11,1.43-3.42,1.76v5.56c1.31.32,2.49.94,3.42,1.76,1.41,1.24,2.29,2.95,2.29,4.85s-.88,3.61-2.29,4.85c-.93.82-2.11,1.44-3.42,1.76v5.56c1.31.32,2.49.94,3.42,1.76,1.41,1.24,2.29,2.95,2.29,4.85s-.88,3.61-2.29,4.85c-.93.82-2.11,1.44-3.42,1.76v11.61h.04c5,.44,9.49,2.41,12.85,5.36,3.83,3.37,6.21,8.02,6.21,13.16s-2.38,9.79-6.21,13.16c-3.37,2.96-7.88,4.93-12.89,5.36v9.03c1.31.32,2.49.94,3.42,1.76,1.41,1.24,2.29,2.95,2.29,4.85s-.88,3.61-2.29,4.85c-.93.82-2.11,1.44-3.42,1.76v5.56c1.31.32,2.49.94,3.42,1.76,1.41,1.24,2.29,2.95,2.29,4.85s-.88,3.61-2.29,4.85c-.93.82-2.11,1.43-3.42,1.76v5.56c1.31.32,2.49.94,3.42,1.76,1.41,1.24,2.29,2.95,2.29,4.85s-.88,3.61-2.29,4.85c-.93.82-2.11,1.44-3.42,1.76v5.56c1.31.32,2.49.94,3.42,1.76,1.41,1.24,2.29,2.95,2.29,4.85s-.88,3.61-2.29,4.85c-.93.82-2.11,1.43-3.42,1.76v10.14h.04c4.99.44,9.47,2.4,12.82,5.35,3.36,2.95,5.6,6.89,6.09,11.28h674.72c.49-4.39,2.73-8.33,6.09-11.28,3.36-2.95,7.85-4.91,12.85-5.35v-10.14c-1.31-.32-2.49-.94-3.42-1.76-1.41-1.24-2.29-2.95-2.29-4.85s.88-3.61,2.29-4.85c.93-.82,2.11-1.44,3.42-1.76v-5.56c-1.31-.32-2.49-.94-3.42-1.76-1.41-1.24-2.29-2.95-2.29-4.85s.88-3.61,2.29-4.85c.93-.82,2.11-1.43,3.42-1.76v-5.56c-1.31-.32-2.49-.94-3.42-1.76-1.41-1.24-2.29-2.95-2.29-4.85s.88-3.61,2.29-4.85c.93-.82,2.11-1.44,3.42-1.76v-5.56c-1.31-.32-2.49-.94-3.42-1.76-1.41-1.24-2.29-2.95-2.29-4.85s.88-3.61,2.29-4.85c.93-.82,2.11-1.44,3.42-1.76v-9.03h-.04c-5-.44-9.49-2.41-12.85-5.36-3.83-3.37-6.21-8.02-6.21-13.16s2.38-9.79,6.21-13.16c3.37-2.96,7.88-4.93,12.89-5.36v-11.61c-1.31-.32-2.49-.94-3.42-1.76-1.41-1.24-2.29-2.95-2.29-4.85s.88-3.61,2.29-4.85c.93-.82,2.11-1.44,3.42-1.76v-5.56c-1.31-.32-2.49-.94-3.42-1.76-1.41-1.24-2.29-2.95-2.29-4.85s.88-3.61,2.29-4.85c.93-.82,2.11-1.43,3.42-1.76v-5.56c-1.31-.32-2.49-.94-3.42-1.76-1.41-1.24-2.29-2.95-2.29-4.85s.88-3.61,2.29-4.85c.93-.82,2.11-1.44,3.42-1.76v-5.56c-1.31-.32-2.49-.94-3.42-1.76-1.41-1.24-2.29-2.95-2.29-4.85s.88-3.61,2.29-4.85c.93-.82,2.11-1.44,3.42-1.76v-7.56h-.04c-4.99-.44-9.47-2.4-12.82-5.35-3.36-2.95-5.6-6.89-6.09-11.28Z"/>
          <path class="cls-3" d="m696.84.72H22.12c-.49,4.39-2.73,8.33-6.09,11.28-3.36,2.95-7.85,4.91-12.85,5.35v7.56c1.31.32,2.49.94,3.42,1.76,1.41,1.24,2.29,2.95,2.29,4.85s-.88,3.61-2.29,4.85c-.93.82-2.11,1.44-3.42,1.76v5.56c1.31.32,2.49.94,3.42,1.76,1.41,1.24,2.29,2.95,2.29,4.85s-.88,3.61-2.29,4.85c-.93.82-2.11,1.43-3.42,1.76v5.56c1.31.32,2.49.94,3.42,1.76,1.41,1.24,2.29,2.95,2.29,4.85s-.88,3.61-2.29,4.85c-.93.82-2.11,1.44-3.42,1.76v5.56c1.31.32,2.49.94,3.42,1.76,1.41,1.24,2.29,2.95,2.29,4.85s-.88,3.61-2.29,4.85c-.93.82-2.11,1.44-3.42,1.76v11.61h.04c5,.44,9.49,2.41,12.85,5.36,3.83,3.37,6.21,8.02,6.21,13.16s-2.38,9.79-6.21,13.16c-3.37,2.96-7.88,4.93-12.89,5.36v9.03c1.31.32,2.49.94,3.42,1.76,1.41,1.24,2.29,2.95,2.29,4.85s-.88,3.61-2.29,4.85c-.93.82-2.11,1.44-3.42,1.76v5.56c1.31.32,2.49.94,3.42,1.76,1.41,1.24,2.29,2.95,2.29,4.85s-.88,3.61-2.29,4.85c-.93.82-2.11,1.43-3.42,1.76v5.56c1.31.32,2.49.94,3.42,1.76,1.41,1.24,2.29,2.95,2.29,4.85s-.88,3.61-2.29,4.85c-.93.82-2.11,1.44-3.42,1.76v5.56c1.31.32,2.49.94,3.42,1.76,1.41,1.24,2.29,2.95,2.29,4.85s-.88,3.61-2.29,4.85c-.93.82-2.11,1.43-3.42,1.76v10.14h.04c4.99.44,9.47,2.4,12.82,5.35,3.36,2.95,5.6,6.89,6.09,11.28h674.72c.49-4.39,2.73-8.33,6.09-11.28,3.36-2.95,7.85-4.91,12.85-5.35v-10.14c-1.31-.32-2.49-.94-3.42-1.76-1.41-1.24-2.29-2.95-2.29-4.85s.88-3.61,2.29-4.85c.93-.82,2.11-1.44,3.42-1.76v-5.56c-1.31-.32-2.49-.94-3.42-1.76-1.41-1.24-2.29-2.95-2.29-4.85s.88-3.61,2.29-4.85c.93-.82,2.11-1.43,3.42-1.76v-5.56c-1.31-.32-2.49-.94-3.42-1.76-1.41-1.24-2.29-2.95-2.29-4.85s.88-3.61,2.29-4.85c.93-.82,2.11-1.44,3.42-1.76v-5.56c-1.31-.32-2.49-.94-3.42-1.76-1.41-1.24-2.29-2.95-2.29-4.85s.88-3.61,2.29-4.85c.93-.82,2.11-1.44,3.42-1.76v-9.03h-.04c-5-.44-9.49-2.41-12.85-5.36-3.83-3.37-6.21-8.02-6.21-13.16s2.38-9.79,6.21-13.16c3.37-2.96,7.88-4.93,12.89-5.36v-11.61c-1.31-.32-2.49-.94-3.42-1.76-1.41-1.24-2.29-2.95-2.29-4.85s.88-3.61,2.29-4.85c.93-.82,2.11-1.44,3.42-1.76v-5.56c-1.31-.32-2.49-.94-3.42-1.76-1.41-1.24-2.29-2.95-2.29-4.85s.88-3.61,2.29-4.85c.93-.82,2.11-1.43,3.42-1.76v-5.56c-1.31-.32-2.49-.94-3.42-1.76-1.41-1.24-2.29-2.95-2.29-4.85s.88-3.61,2.29-4.85c.93-.82,2.11-1.44,3.42-1.76v-5.56c-1.31-.32-2.49-.94-3.42-1.76-1.41-1.24-2.29-2.95-2.29-4.85s.88-3.61,2.29-4.85c.93-.82,2.11-1.44,3.42-1.76v-7.56h-.04c-4.99-.44-9.47-2.4-12.82-5.35-3.36-2.95-5.6-6.89-6.09-11.28Z"/>
        </g>
        <path class="cls-31" d="m16.77,236.39c3.31,2.91,5.59,6.74,6.28,11.01h672.86c.69-4.27,2.97-8.1,6.28-11.01,3.31-2.91,7.68-4.9,12.55-5.51v-8.66c-1.18-.39-2.24-1-3.11-1.77-1.6-1.4-2.59-3.35-2.59-5.5s.99-4.09,2.59-5.5c.87-.77,1.93-1.38,3.11-1.77v-4.23c-1.18-.39-2.24-1-3.11-1.77-1.6-1.4-2.59-3.35-2.59-5.5s.99-4.09,2.59-5.5c.87-.77,1.93-1.38,3.11-1.77v-4.23c-1.18-.39-2.24-1-3.11-1.77-1.6-1.4-2.59-3.35-2.59-5.5s.99-4.09,2.59-5.5c.87-.77,1.93-1.38,3.11-1.77v-4.23c-1.18-.39-2.24-1-3.11-1.77-1.6-1.4-2.59-3.35-2.59-5.5s.99-4.09,2.59-5.5c.87-.77,1.93-1.38,3.11-1.77v-7.54c-4.89-.61-9.26-2.61-12.59-5.53-4.02-3.53-6.52-8.42-6.52-13.81s2.49-10.28,6.52-13.81c3.32-2.92,7.7-4.92,12.59-5.53v-10.12c-1.18-.39-2.24-1-3.11-1.77-1.6-1.4-2.59-3.35-2.59-5.5s.99-4.09,2.59-5.5c.87-.77,1.93-1.38,3.11-1.77v-4.23c-1.18-.39-2.24-1-3.11-1.77-1.6-1.4-2.59-3.35-2.59-5.5s.99-4.09,2.59-5.5c.87-.77,1.93-1.38,3.11-1.77v-4.23c-1.18-.39-2.24-1-3.11-1.77-1.6-1.4-2.59-3.35-2.59-5.5s.99-4.09,2.59-5.5c.87-.77,1.93-1.38,3.11-1.77v-4.23c-1.18-.39-2.24-1-3.11-1.77-1.6-1.4-2.59-3.35-2.59-5.5s.99-4.09,2.59-5.5c.87-.77,1.93-1.38,3.11-1.77v-6.08c-4.87-.61-9.23-2.6-12.55-5.51-3.31-2.91-5.59-6.74-6.28-11.01H23.05c-.69,4.27-2.97,8.1-6.28,11.01-3.31,2.91-7.68,4.9-12.55,5.51v6.08c1.18.39,2.24,1,3.11,1.77,1.6,1.4,2.59,3.35,2.59,5.5s-.99,4.09-2.59,5.5c-.87.77-1.93,1.38-3.11,1.77v4.23c1.18.39,2.24,1,3.11,1.77,1.6,1.4,2.59,3.35,2.59,5.5s-.99,4.09-2.59,5.5c-.87.77-1.93,1.38-3.11,1.77v4.23c1.18.39,2.24,1,3.11,1.77,1.6,1.4,2.59,3.35,2.59,5.5s-.99,4.09-2.59,5.5c-.87.77-1.93,1.38-3.11,1.77v4.23c1.18.39,2.24,1,3.11,1.77,1.6,1.4,2.59,3.35,2.59,5.5s-.99,4.09-2.59,5.5c-.87.77-1.93,1.38-3.11,1.77v10.12c4.89.61,9.26,2.61,12.59,5.53,4.02,3.53,6.52,8.42,6.52,13.81s-2.49,10.28-6.52,13.81c-3.32,2.92-7.7,4.92-12.59,5.53v7.54c1.18.39,2.24,1,3.11,1.77,1.6,1.4,2.59,3.35,2.59,5.5s-.99,4.09-2.59,5.5c-.87.77-1.93,1.38-3.11,1.77v4.23c1.18.39,2.24,1,3.11,1.77,1.6,1.4,2.59,3.35,2.59,5.5s-.99,4.09-2.59,5.5c-.87.77-1.93,1.38-3.11,1.77v4.23c1.18.39,2.24,1,3.11,1.77,1.6,1.4,2.59,3.35,2.59,5.5s-.99,4.09-2.59,5.5c-.87.77-1.93,1.38-3.11,1.77v4.23c1.18.39,2.24,1,3.11,1.77,1.6,1.4,2.59,3.35,2.59,5.5s-.99,4.09-2.59,5.5c-.87.77-1.93,1.38-3.11,1.77v8.66c4.87.61,9.23,2.6,12.55,5.51Z"/>
      </g>
      <g>
        <path class="cls-2" d="m2.13,209.36c1.45.2,2.74.8,3.73,1.66,1.22,1.07,1.98,2.55,1.98,4.19s-.76,3.12-1.98,4.19c-.99.87-2.28,1.47-3.73,1.66v11.72c5.13.23,9.76,2.15,13.16,5.13,3.4,2.98,5.6,7.03,5.86,11.53h676.67c.26-4.5,2.45-8.55,5.86-11.53,3.41-2.98,8.03-4.9,13.16-5.13v-11.72c-1.45-.2-2.74-.8-3.73-1.66-1.22-1.07-1.98-2.55-1.98-4.19s.76-3.12,1.98-4.19c.99-.87,2.28-1.46,3.73-1.66v-5.44H2.13v5.44Z"/>
        <path class="cls-10" d="m713.11,200.66c-1.22-1.07-1.98-2.55-1.98-4.19s.76-3.12,1.98-4.19c.99-.87,2.28-1.47,3.73-1.66v-7.03c-1.45-.2-2.74-.8-3.73-1.66-1.22-1.07-1.98-2.55-1.98-4.19s.76-3.12,1.98-4.19c.99-.87,2.28-1.47,3.73-1.66v-7.03c-1.45-.2-2.74-.8-3.73-1.66-1.22-1.07-1.98-2.55-1.98-4.19s.76-3.12,1.98-4.19c.99-.87,2.28-1.47,3.73-1.66v-10.6c-5.15-.23-9.79-2.16-13.2-5.15-3.65-3.19-5.9-7.61-5.9-12.48s2.26-9.29,5.9-12.48c3.42-2.99,8.05-4.92,13.2-5.15v-13.18c-1.45-.2-2.74-.8-3.73-1.66-1.22-1.07-1.98-2.55-1.98-4.19s.76-3.12,1.98-4.19c.99-.87,2.28-1.46,3.73-1.66v-7.03c-1.45-.2-2.74-.8-3.73-1.66-1.22-1.07-1.98-2.55-1.98-4.19s.76-3.12,1.98-4.19c.99-.87,2.28-1.46,3.73-1.66v-7.03c-1.45-.2-2.74-.8-3.73-1.66-1.22-1.07-1.98-2.55-1.98-4.19s.76-3.12,1.98-4.19c.99-.87,2.28-1.47,3.73-1.66v-7.03c-1.45-.2-2.74-.8-3.73-1.66-1.22-1.07-1.98-2.55-1.98-4.19s.76-3.12,1.98-4.19c.99-.87,2.28-1.47,3.73-1.66v-9.14c-5.13-.23-9.76-2.15-13.16-5.13-3.41-2.98-5.6-7.03-5.86-11.53H21.15c-.26,4.5-2.45,8.55-5.86,11.53-3.41,2.98-8.03,4.9-13.16,5.13v9.14c1.45.2,2.74.8,3.73,1.66,1.22,1.07,1.98,2.55,1.98,4.19s-.76,3.12-1.98,4.19c-.99.87-2.28,1.47-3.73,1.66v7.03c1.45.2,2.74.8,3.73,1.66,1.22,1.07,1.98,2.55,1.98,4.19s-.76,3.12-1.98,4.19c-.99.87-2.28,1.47-3.73,1.66v7.03c1.45.2,2.74.8,3.73,1.66,1.22,1.07,1.98,2.55,1.98,4.19s-.76,3.12-1.98,4.19c-.99.87-2.28,1.47-3.73,1.66v7.03c1.45.2,2.74.8,3.73,1.66,1.22,1.07,1.98,2.55,1.98,4.19s-.76,3.12-1.98,4.19c-.99.87-2.28,1.47-3.73,1.66v13.18c5.15.23,9.79,2.16,13.2,5.15,3.65,3.19,5.9,7.61,5.9,12.48s-2.26,9.29-5.9,12.48c-3.42,2.99-8.05,4.92-13.2,5.15v10.6c1.45.2,2.74.8,3.73,1.66,1.22,1.07,1.98,2.55,1.98,4.19s-.76,3.12-1.98,4.19c-.99.87-2.28,1.47-3.73,1.66v7.03c1.45.2,2.74.8,3.73,1.66,1.22,1.07,1.98,2.55,1.98,4.19s-.76,3.12-1.98,4.19c-.99.87-2.28,1.47-3.73,1.66v7.03c1.45.2,2.74.8,3.73,1.66,1.22,1.07,1.98,2.55,1.98,4.19s-.76,3.12-1.98,4.19c-.99.87-2.28,1.47-3.73,1.66v1.59h714.71v-1.59c-1.45-.2-2.74-.8-3.73-1.66Z"/>
      </g>
      <path class="cls-18" d="m276.12,110.72v-56.94h-65.94c-5.05,0-9.55,3.04-10.03,7.19-.55,4.76,3.97,8.76,9.62,8.76h32.36c3.15,0,6.04,1.76,6.63,4.31.8,3.44-2.37,6.44-6.39,6.44h-15.62c-5.05,0-9.55,3.04-10.03,7.19-.55,4.76,3.97,8.76,9.62,8.76h16.72c2.88,0,5.51,1.71,5.8,4.08.33,2.72-2.25,5.02-5.48,5.02h-16.62c-5.05,0-9.55,3.04-10.03,7.19-.55,4.76,3.97,8.76,9.62,8.76h28.08c3.52,0,6.38,2.36,6.38,5.26h0c0,2.91-2.86,5.26-6.38,5.26h-58.41c-5.05,0-9.55,3.04-10.03,7.19-.55,4.76,3.97,8.76,9.62,8.76h102.26c3.09,0,5.91,1.72,6.5,4.22.78,3.36-2.32,6.31-6.26,6.31h-39.13c-5.05,0-9.55,3.04-10.03,7.19-.55,4.76,3.97,8.76,9.62,8.76h77.11v-63.7h-59.53Z"/>
      <rect class="cls-4" x="335.86" y="122.33" width="15.75" height="81.06"/>
      <path class="cls-11" d="m343.74,202.99v-54.88c0-2.29,2.25-4.14,5.02-4.14h2.86v-21.63h-15.75v80.66h7.88Z"/>
      <path class="cls-24" d="m416.64,118.29V35.8h-113.54c-26,0-47.08,17.39-47.08,38.85v38.92c0,1.74.63,3.36,1.7,4.72h158.92Z"/>
      <path class="cls-5" d="m257.18,66.1c-.74,2.75-1.16,5.61-1.16,8.55v38.92c0,4.84,4.67,8.76,10.43,8.76h147.38v-56.23h-156.64Z"/>
      <path class="cls-25" d="m416.64,118.05v-17.48h-160.62v13.01c0,1.64.58,3.16,1.54,4.47h159.08Z"/>
      <path class="cls-11" d="m387.29,35.8h53.07c10.89,0,19.72,8.84,19.72,19.72v62.48h-92.52v-62.48c0-10.89,8.84-19.72,19.72-19.72Z"/>
      <path class="cls-19" d="m460.08,118.29h-202.37c.78,3.11,4.21,5.44,8.31,5.44h194.06v-5.44Z"/>
      <ellipse class="cls-12" cx="499.05" cy="56.94" rx="5.74" ry="5.18" transform="translate(-2.19 24.47) rotate(-2.8)"/>
      <g>
        <line class="cls-14" x1="257.72" y1="11.66" x2="257.72" y2="33.55"/>
        <line class="cls-14" x1="270.62" y1="22.6" x2="244.81" y2="22.6"/>
      </g>
      <g>
        <line class="cls-13" x1="416.64" y1="138.32" x2="416.64" y2="149.48"/>
        <line class="cls-13" x1="423.4" y1="143.9" x2="409.88" y2="143.9"/>
      </g>
      <rect class="cls-29" x="288.59" y="48.56" width="75.2" height="8.37" rx="2.12" ry="2.12"/>
      <path class="cls-19" d="m339.29,73.89c-6.06,0-10.97,4.6-10.97,10.27s4.91,10.27,10.97,10.27,10.97-4.6,10.97-10.27-4.91-10.27-10.97-10.27Z"/>
      <path class="cls-4" d="m339.29,85.38h0c-1.33,0-2.4-.89-2.4-1.98V6.86c0-1.09,1.08-1.98,2.4-1.98h0c1.33,0,2.4.89,2.4,1.98v76.54c0,1.09-1.08,1.98-2.4,1.98Z"/>
      <path class="cls-24" d="m310.6,9.96h26.29v14.44h-26.29c-.78,0-1.42-.63-1.42-1.42v-11.61c0-.78.63-1.42,1.42-1.42Z"/>
      <path class="cls-18" d="m136.5,109.33v-.17c0-2.4-2.35-4.34-5.26-4.34h-63.92c-2.9,0-5.26,1.94-5.26,4.34v.17c0,2.4,2.35,4.34,5.26,4.34h9.19c2.9,0,5.26,1.94,5.26,4.34h0c0,2.4-2.35,4.34-5.26,4.34h-24.7c-2.9,0-5.26,1.94-5.26,4.34v.17c0,2.4,2.35,4.34,5.26,4.34h60.21c2.9,0,5.26-1.94,5.26-4.34v-.17c0-2.4-2.35-4.34-5.26-4.34h-3.37c-2.9,0-5.26-1.94-5.26-4.34h0c0-2.4,2.35-4.34,5.26-4.34h22.59c2.9,0,5.26-1.94,5.26-4.34Z"/>
      <path class="cls-18" d="m560.48,120.67h0c0-1.85,1.81-3.34,4.05-3.34h3.68c3.09,0,5.6-2.07,5.6-4.62h0c0-2.55-2.51-4.62-5.6-4.62h-27.11c-2.18,0-3.95-1.46-3.95-3.26h0c0-1.8,1.77-3.26,3.95-3.26h12.31c3.09,0,5.6-2.07,5.6-4.62h0c0-2.55-2.51-4.62-5.6-4.62h-1.9c-3.03,0-5.49-2.03-5.49-4.53h0c0-2.5,2.46-4.53,5.49-4.53h23.5c3.09,0,5.6-2.07,5.6-4.62h0c0-2.55-2.51-4.62-5.6-4.62h-57.99c-3.09,0-5.6,2.07-5.6,4.62h0c0,2.55,2.51,4.62,5.6,4.62h.9c3.03,0,5.49,2.03,5.49,4.53h0c0,2.5-2.46,4.53-5.49,4.53h-25.7c-3.09,0-5.6,2.07-5.6,4.62h0c0,2.55,2.51,4.62,5.6,4.62h19.25c2.18,0,3.95,1.46,3.95,3.26h0c0,1.8-1.77,3.26-3.95,3.26h-7.65c-3.09,0-5.6,2.07-5.6,4.62h0c0,2.55,2.51,4.62,5.6,4.62h22.21c2.24,0,4.05,1.5,4.05,3.34h0c0,1.85-1.81,3.34-4.05,3.34h-15.81c-3.09,0-5.6,2.07-5.6,4.62h0c0,2.55,2.51,4.62,5.6,4.62h80.79c3.09,0,5.6-2.07,5.6-4.62h0c0-2.55-2.51-4.62-5.6-4.62h-26.48c-2.24,0-4.05-1.5-4.05-3.34Z"/>
      <g>
        <g>
          <path class="cls-7" d="m140.29,24.48h0c0-1-.99-1.82-2.2-1.82h-21.86v16.47h11.81c1.22,0,2.2-.81,2.2-1.82h0c0-1-.99-1.82-2.2-1.82h-3.16c-.93,0-1.69-.62-1.69-1.39h0c0-.77.76-1.39,1.69-1.39h8.37c1.22,0,2.2-.81,2.2-1.82h0c0-1-.99-1.82-2.2-1.82h-2.56c-.93,0-1.69-.62-1.69-1.39h0c0-.77.76-1.39,1.69-1.39h7.4c1.22,0,2.2-.81,2.2-1.82Z"/>
          <path class="cls-7" d="m24.65,24.48h0c0-1,.99-1.82,2.2-1.82h21.86v16.47h-11.81c-1.22,0-2.2-.81-2.2-1.82h0c0-1,.99-1.82,2.2-1.82h3.16c.93,0,1.69-.62,1.69-1.39h0c0-.77-.76-1.39-1.69-1.39h-8.37c-1.22,0-2.2-.81-2.2-1.82h0c0-1,.99-1.82,2.2-1.82h2.56c.93,0,1.69-.62,1.69-1.39h0c0-.77-.76-1.39-1.69-1.39h-7.4c-1.22,0-2.2-.81-2.2-1.82Z"/>
        </g>
        <g>
          <rect class="cls-16" x="46.56" y="18.32" width="71.83" height="34.96"/>
          <polygon class="cls-26" points="118.39 53.28 82.47 30.61 46.56 53.28 118.39 53.28"/>
          <path class="cls-24" d="m46.56,18.32l32.46,20.5c2.04,1.29,4.87,1.29,6.9,0l32.46-20.5H46.56Z"/>
        </g>
      </g>
      <g>
        <g>
          <path class="cls-7" d="m693.94,161.87h0c0-1.11-1.09-2.01-2.44-2.01h-24.24v18.27h13.1c1.35,0,2.44-.9,2.44-2.01h0c0-1.11-1.09-2.01-2.44-2.01h-3.51c-1.04,0-1.87-.69-1.87-1.55h0c0-.85.84-1.55,1.87-1.55h9.29c1.35,0,2.44-.9,2.44-2.01h0c0-1.11-1.09-2.01-2.44-2.01h-2.84c-1.04,0-1.87-.69-1.87-1.55h0c0-.85.84-1.55,1.87-1.55h8.2c1.35,0,2.44-.9,2.44-2.01Z"/>
          <path class="cls-7" d="m565.66,161.87h0c0-1.11,1.09-2.01,2.44-2.01h24.24v18.27h-13.1c-1.35,0-2.44-.9-2.44-2.01h0c0-1.11,1.09-2.01,2.44-2.01h3.51c1.04,0,1.87-.69,1.87-1.55h0c0-.85-.84-1.55-1.87-1.55h-9.29c-1.35,0-2.44-.9-2.44-2.01h0c0-1.11,1.09-2.01,2.44-2.01h2.84c1.04,0,1.87-.69,1.87-1.55h0c0-.85-.84-1.55-1.87-1.55h-8.2c-1.35,0-2.44-.9-2.44-2.01Z"/>
        </g>
        <g>
          <rect class="cls-16" x="589.97" y="155.03" width="79.67" height="38.78"/>
          <polygon class="cls-26" points="669.64 193.82 629.8 168.66 589.97 193.82 669.64 193.82"/>
          <path class="cls-24" d="m589.97,155.03l36.01,22.74c2.26,1.43,5.4,1.43,7.66,0l36.01-22.74h-79.67Z"/>
        </g>
      </g>
      <g>
        <g>
          <path class="cls-7" d="m674.54,21.81h0c0-1.35-1.33-2.45-2.97-2.45h-29.46v22.2h15.92c1.64,0,2.97-1.1,2.97-2.45h0c0-1.35-1.33-2.45-2.97-2.45h-4.26c-1.26,0-2.28-.84-2.28-1.88h0c0-1.04,1.02-1.88,2.28-1.88h11.28c1.64,0,2.97-1.1,2.97-2.45h0c0-1.35-1.33-2.45-2.97-2.45h-3.45c-1.26,0-2.28-.84-2.28-1.88h0c0-1.04,1.02-1.88,2.28-1.88h9.97c1.64,0,2.97-1.1,2.97-2.45Z"/>
          <path class="cls-7" d="m518.68,21.81h0c0-1.35,1.33-2.45,2.97-2.45h29.46v22.2h-15.92c-1.64,0-2.97-1.1-2.97-2.45h0c0-1.35,1.33-2.45,2.97-2.45h4.26c1.26,0,2.28-.84,2.28-1.88h0c0-1.04-1.02-1.88-2.28-1.88h-11.28c-1.64,0-2.97-1.1-2.97-2.45h0c0-1.35,1.33-2.45,2.97-2.45h3.45c1.26,0,2.28-.84,2.28-1.88h0c0-1.04-1.02-1.88-2.28-1.88h-9.97c-1.64,0-2.97-1.1-2.97-2.45Z"/>
        </g>
        <g>
          <rect class="cls-16" x="548.21" y="13.5" width="96.8" height="47.12"/>
          <polygon class="cls-26" points="645.01 60.63 596.61 30.06 548.21 60.63 645.01 60.63"/>
          <path class="cls-24" d="m548.21,13.5l43.75,27.62c2.75,1.73,6.56,1.73,9.3,0l43.75-27.62h-96.8Z"/>
        </g>
      </g>
      <g>
        <path class="cls-9" d="m432.08,72.72h-28.38c-2.65,0-4.8,2.03-4.8,4.53h0c0,2.5,2.15,4.53,4.8,4.53h28.38c2.65,0,4.8-2.03,4.8-4.53h0c0-2.5-2.15-4.53-4.8-4.53Z"/>
        <path class="cls-25" d="m403.71,72.72h0c-2.65,0-4.8,2.03-4.8,4.53h0c0,2.5,2.15,4.53,4.8,4.53h0c2.65,0,4.8-2.03,4.8-4.53h0c0-2.5-2.15-4.53-4.8-4.53Z"/>
      </g>
      <g>
        <rect class="cls-9" x="384.99" y="96.92" width="63.3" height="10.94" rx="2.79" ry="2.79"/>
        <path class="cls-25" d="m448.29,101.06h-63.3c0-2.29,2.25-4.15,5.03-4.15h53.24c2.78,0,5.03,1.86,5.03,4.15h0Z"/>
      </g>
      <text class="cls-21" transform="translate(208.45 236.85)"><tspan class="cls-22" x="0" y="0">C</tspan><tspan x="25.7" y="0">oupon Emails</tspan></text>
      <text class="cls-20" transform="translate(18.31 165.42)"><tspan x="0" y="0">Bi</tspan><tspan class="cls-30" x="19.19" y="0">r</tspan><tspan x="27.22" y="0">t</tspan><tspan class="cls-34" x="35.05" y="0">h</tspan><tspan x="47.59" y="0">d</tspan><tspan class="cls-17" x="60.05" y="0">a</tspan><tspan x="70.97" y="0">y</tspan></text>
      <text class="cls-20" transform="translate(593.58 102.89)"><tspan x="0" y="0">Na</tspan><tspan class="cls-34" x="25.65" y="0">m</tspan><tspan x="44.64" y="0">ed</tspan><tspan class="cls-17" x="68.45" y="0">a</tspan><tspan class="cls-6" x="79.38" y="0">y</tspan></text>
      <text class="cls-20" transform="translate(130.06 194.86)"><tspan x="0" y="0">Af</tspan><tspan class="cls-35" x="20.75" y="0">t</tspan><tspan x="28.28" y="0">er O</tspan><tspan class="cls-27" x="67.68" y="0">r</tspan><tspan x="75.28" y="0">der</tspan></text>
      <text class="cls-20" transform="translate(384.99 22.67)"><tspan x="0" y="0">Reo</tspan><tspan class="cls-27" x="36.38" y="0">r</tspan><tspan x="43.97" y="0">der</tspan></text>
      <text class="cls-20" transform="translate(386.48 178.13)"><tspan x="0" y="0">Af</tspan><tspan class="cls-35" x="20.75" y="0">t</tspan><tspan x="28.28" y="0">er R</tspan><tspan class="cls-17" x="65.72" y="0">e</tspan><tspan x="76.9" y="0">vi</tspan><tspan class="cls-23" x="93.08" y="0">e</tspan><tspan class="cls-28" x="104.25" y="0">w</tspan><tspan x="120.85" y="0">ed</tspan></text>
      <text class="cls-20" transform="translate(85.49 84.16)"><tspan x="0" y="0">O</tspan><tspan class="cls-32" x="15.19" y="0">n</tspan><tspan x="27.74" y="0">e </tspan><tspan class="cls-15" x="44.19" y="0">T</tspan><tspan x="55.1" y="0">i</tspan><tspan class="cls-32" x="60.52" y="0">m</tspan><tspan x="79.5" y="0">e</tspan></text>
      <ellipse class="cls-12" cx="677.83" cy="134.22" rx="5.74" ry="5.18" transform="translate(-5.75 33.3) rotate(-2.8)"/>
      <ellipse class="cls-12" cx="133.44" cy="149.35" rx="5.74" ry="5.18" transform="translate(-7.14 6.7) rotate(-2.8)"/>
    </g>
  </g>
</svg>