<?xml version="1.0" encoding="UTF-8"?>
<svg id="OBJECT" xmlns="http://www.w3.org/2000/svg" viewBox="0 0 254.58 256.01">
  <defs>
    <style>
      .cls-1 {
        fill: #375895;
      }

      .cls-2 {
        fill: #b9d1ef;
      }

      .cls-3 {
        fill: #fdffff;
      }

      .cls-4 {
        fill: #476796;
      }

      .cls-5 {
        fill: #598bca;
      }

      .cls-6 {
        fill: #2c4773;
      }

      .cls-7 {
        stroke: #a7c2df;
      }

      .cls-7, .cls-8, .cls-9 {
        fill: none;
        stroke-linecap: round;
        stroke-linejoin: round;
        stroke-width: 1.5px;
      }

      .cls-10 {
        fill: #b6cbe2;
      }

      .cls-8 {
        stroke: #456fa6;
      }

      .cls-11 {
        fill: #4976ba;
      }

      .cls-12 {
        fill: #456fa6;
      }

      .cls-13 {
        fill: #cddffa;
      }

      .cls-14 {
        fill: #a7c2df;
      }

      .cls-15 {
        fill: #9fb8d0;
      }

      .cls-16 {
        fill: #edf4ff;
      }

      .cls-9 {
        stroke: #2c4773;
      }
    </style>
  </defs>
  <g>
    <path class="cls-5" d="m237.65.12h-13.65c0,2.75-2.27,4.98-5.07,4.98s-5.07-2.23-5.07-4.98h-8.85c0,2.75-2.27,4.98-5.07,4.98s-5.07-2.23-5.07-4.98h-8.85c0,2.75-2.27,4.98-5.07,4.98s-5.07-2.23-5.07-4.98h-8.85c0,2.75-2.27,4.98-5.07,4.98s-5.07-2.23-5.07-4.98h-12.52c0,9.21-7.6,16.68-16.97,16.68S110.41,9.33,110.41.12h-15.13c0,2.75-2.27,4.98-5.07,4.98s-5.07-2.23-5.07-4.98h-8.85c0,2.75-2.27,4.98-5.07,4.98s-5.07-2.23-5.07-4.98h-8.85c0,2.75-2.27,4.98-5.07,4.98s-5.07-2.23-5.07-4.98h-8.85c0,2.75-2.27,4.98-5.07,4.98S28.16,2.87,28.16.12h-11.04C17.12,9.3,9.54,16.74.2,16.74v282.4h1.87V18.48c4.44-.43,8.43-2.38,11.42-5.32,2.98-2.93,4.96-6.84,5.41-11.19v-.03h7.66c.33,1.15.95,2.17,1.78,2.99,1.25,1.23,2.99,2,4.9,2s3.65-.77,4.91-2c.83-.82,1.45-1.84,1.78-2.99h5.63c.33,1.15.95,2.17,1.78,2.99,1.25,1.23,2.99,2,4.9,2s3.65-.77,4.91-2c.83-.82,1.45-1.84,1.78-2.99h5.63c.33,1.15.95,2.17,1.78,2.99,1.25,1.23,2.99,2,4.91,2s3.65-.77,4.91-2c.83-.82,1.45-1.84,1.78-2.99h5.63c.32,1.15.95,2.17,1.78,2.99,1.25,1.23,2.99,2,4.91,2s3.65-.77,4.91-2c.83-.82,1.45-1.84,1.78-2.99h11.75c.44,4.38,2.43,8.31,5.43,11.25,3.41,3.35,8.12,5.42,13.32,5.42s9.91-2.07,13.32-5.42c2.99-2.93,4.98-6.85,5.42-11.22v-.04h9.14c.32,1.15.95,2.17,1.78,2.99,1.25,1.23,2.99,2,4.91,2s3.65-.77,4.91-2c.83-.82,1.45-1.84,1.78-2.99h5.63c.33,1.15.95,2.17,1.78,2.99,1.25,1.23,2.99,2,4.9,2s3.65-.77,4.91-2c.83-.82,1.45-1.84,1.78-2.99h5.63c.33,1.15.95,2.17,1.78,2.99,1.25,1.23,2.99,2,4.91,2s3.65-.77,4.91-2c.83-.82,1.45-1.84,1.78-2.99h5.63c.32,1.15.95,2.17,1.78,2.99,1.25,1.23,2.99,2,4.91,2s3.65-.77,4.91-2c.83-.82,1.45-1.84,1.78-2.99h10.26c.44,4.37,2.43,8.29,5.41,11.22,2.99,2.93,6.98,4.89,11.42,5.32v280.66h1.87V16.74c-9.35,0-16.92-7.44-16.92-16.63Z"/>
    <path class="cls-5" d="m3,19.3c4.33-.6,8.2-2.59,11.15-5.48,2.94-2.89,4.96-6.7,5.58-10.95h6.15c.4,1.03,1.02,1.95,1.79,2.72,1.42,1.4,3.39,2.26,5.56,2.26s4.14-.87,5.57-2.26c.78-.76,1.39-1.69,1.79-2.72h4.28c.4,1.03,1.02,1.95,1.79,2.72,1.42,1.4,3.39,2.26,5.56,2.26s4.14-.87,5.57-2.26c.78-.76,1.39-1.69,1.79-2.72h4.28c.4,1.03,1.02,1.95,1.79,2.72,1.42,1.4,3.39,2.26,5.56,2.26s4.14-.87,5.57-2.26c.78-.76,1.39-1.69,1.79-2.72h4.28c.4,1.03,1.02,1.95,1.79,2.72,1.42,1.4,3.39,2.26,5.56,2.26s4.14-.87,5.56-2.26c.78-.76,1.39-1.69,1.79-2.72h10.25c.62,4.26,2.64,8.08,5.59,10.99,3.57,3.51,8.52,5.69,13.98,5.69s10.41-2.18,13.98-5.69c2.95-2.9,4.98-6.72,5.59-10.99h7.63c.4,1.03,1.02,1.95,1.79,2.72,1.42,1.4,3.39,2.26,5.57,2.26s4.14-.87,5.56-2.26c.78-.76,1.39-1.69,1.79-2.72h4.28c.4,1.03,1.02,1.95,1.79,2.72,1.42,1.4,3.39,2.26,5.56,2.26s4.14-.87,5.56-2.26c.78-.76,1.39-1.69,1.79-2.72h4.28c.4,1.03,1.02,1.95,1.79,2.72,1.42,1.4,3.39,2.26,5.56,2.26s4.14-.87,5.57-2.26c.78-.76,1.39-1.69,1.79-2.72h4.28c.4,1.03,1.02,1.95,1.79,2.72,1.42,1.4,3.39,2.26,5.56,2.26s4.14-.87,5.56-2.26c.78-.76,1.39-1.69,1.79-2.72h8.76c.62,4.25,2.64,8.06,5.58,10.95,2.94,2.89,6.82,4.88,11.15,5.48v279.84h.93V18.48c-4.44-.43-8.43-2.38-11.42-5.32-2.99-2.93-4.97-6.85-5.41-11.22h-10.26c-.33,1.15-.95,2.17-1.78,2.99-1.25,1.23-2.99,2-4.91,2s-3.65-.77-4.91-2c-.83-.82-1.45-1.84-1.78-2.99h-5.63c-.33,1.15-.95,2.17-1.78,2.99-1.25,1.23-2.99,2-4.91,2s-3.65-.77-4.91-2c-.83-.82-1.45-1.84-1.78-2.99h-5.63c-.33,1.15-.95,2.17-1.78,2.99-1.25,1.23-2.99,2-4.91,2s-3.65-.77-4.9-2c-.83-.82-1.45-1.84-1.78-2.99h-5.63c-.32,1.15-.95,2.17-1.78,2.99-1.25,1.23-2.99,2-4.91,2s-3.65-.77-4.91-2c-.83-.82-1.45-1.84-1.78-2.99h-9.14v.04c-.45,4.37-2.44,8.28-5.43,11.22-3.41,3.35-8.12,5.42-13.32,5.42s-9.91-2.07-13.32-5.42c-2.99-2.94-4.99-6.88-5.43-11.25h-11.75c-.32,1.15-.95,2.17-1.78,2.99-1.25,1.23-2.99,2-4.91,2s-3.65-.77-4.91-2c-.83-.82-1.45-1.84-1.78-2.99h-5.63c-.33,1.15-.95,2.17-1.78,2.99-1.25,1.23-2.99,2-4.91,2s-3.65-.77-4.91-2c-.83-.82-1.45-1.84-1.78-2.99h-5.63c-.33,1.15-.95,2.17-1.78,2.99-1.25,1.23-2.99,2-4.91,2s-3.65-.77-4.9-2c-.83-.82-1.45-1.84-1.78-2.99h-5.63c-.32,1.15-.95,2.17-1.78,2.99-1.25,1.23-2.99,2-4.91,2s-3.65-.77-4.9-2c-.83-.82-1.45-1.84-1.78-2.99h-7.65v.03c-.45,4.35-2.43,8.26-5.41,11.19-2.99,2.93-6.98,4.89-11.42,5.32v280.66h.93V19.3Z"/>
    <path class="cls-5" d="m240.63,13.82c-2.94-2.89-4.96-6.7-5.58-10.95h-8.76c-.4,1.03-1.02,1.95-1.79,2.72-1.42,1.4-3.39,2.26-5.56,2.26s-4.14-.87-5.56-2.26c-.78-.76-1.39-1.69-1.79-2.72h-4.28c-.4,1.03-1.02,1.95-1.79,2.72-1.42,1.4-3.39,2.26-5.57,2.26s-4.14-.87-5.56-2.26c-.78-.76-1.39-1.69-1.79-2.72h-4.28c-.4,1.03-1.02,1.95-1.79,2.72-1.42,1.4-3.39,2.26-5.56,2.26s-4.14-.87-5.56-2.26c-.78-.76-1.39-1.69-1.79-2.72h-4.28c-.4,1.03-1.02,1.95-1.79,2.72-1.42,1.4-3.39,2.26-5.56,2.26s-4.14-.87-5.57-2.26c-.78-.76-1.39-1.69-1.79-2.72h-7.63c-.62,4.26-2.64,8.08-5.59,10.99-3.57,3.51-8.52,5.69-13.98,5.69s-10.41-2.18-13.98-5.69c-2.95-2.9-4.98-6.72-5.59-10.99h-10.25c-.4,1.03-1.02,1.95-1.79,2.72-1.42,1.4-3.39,2.26-5.56,2.26s-4.14-.87-5.56-2.26c-.78-.76-1.39-1.69-1.79-2.72h-4.28c-.4,1.03-1.02,1.95-1.79,2.72-1.42,1.4-3.39,2.26-5.57,2.26s-4.14-.87-5.56-2.26c-.78-.76-1.39-1.69-1.79-2.72h-4.28c-.4,1.03-1.02,1.95-1.79,2.72-1.42,1.4-3.39,2.26-5.57,2.26s-4.14-.87-5.56-2.26c-.78-.76-1.39-1.69-1.79-2.72h-4.28c-.4,1.03-1.02,1.95-1.79,2.72-1.42,1.4-3.39,2.26-5.57,2.26s-4.14-.87-5.56-2.26c-.78-.76-1.39-1.69-1.79-2.72h-6.15c-.61,4.25-2.63,8.06-5.58,10.95-2.94,2.89-6.82,4.88-11.15,5.48v279.84h248.78V19.3c-4.33-.6-8.2-2.59-11.15-5.48Z"/>
  </g>
  <path class="cls-11" d="m74.85,183.66v-46.2H24.48c-3.86,0-7.3,2.47-7.66,5.83-.42,3.86,3.03,7.11,7.35,7.11h24.72c2.41,0,4.61,1.43,5.07,3.5.61,2.79-1.81,5.23-4.88,5.23h-11.93c-3.86,0-7.3,2.47-7.66,5.83-.42,3.86,3.03,7.11,7.35,7.11h12.77c2.2,0,4.21,1.39,4.43,3.31.25,2.21-1.72,4.07-4.19,4.07h-12.7c-3.86,0-7.3,2.47-7.66,5.83-.42,3.86,3.03,7.11,7.35,7.11h21.45c2.69,0,4.87,1.91,4.87,4.27h0c0,2.36-2.18,4.27-4.87,4.27H13.65c-3.86,0-7.3,2.47-7.66,5.83-.42,3.86,3.03,7.11,7.35,7.11h78.12c2.36,0,4.52,1.4,4.96,3.43.6,2.73-1.77,5.12-4.78,5.12h-29.89c-3.86,0-7.3,2.47-7.66,5.83-.42,3.86,3.03,7.11,7.35,7.11h58.91v-51.69h-45.48Z"/>
  <rect class="cls-1" x="118.03" y="183.25" width="14.46" height="96.35"/>
  <path class="cls-6" d="m125.26,263.9v-54.88c0-2.29,2.06-4.14,4.61-4.14h2.62v-21.63h-14.46v80.66h7.23Z"/>
  <path class="cls-13" d="m192.18,179.21v-82.49h-104.23c-23.87,0-43.23,17.39-43.23,38.85v38.92c0,1.74.58,3.36,1.56,4.72h145.9Z"/>
  <path class="cls-2" d="m45.79,127.02c-.68,2.75-1.07,5.61-1.07,8.55v38.92c0,4.84,4.29,8.76,9.57,8.76h135.3v-56.23H45.79Z"/>
  <path class="cls-14" d="m192.18,178.96v-17.48H44.73v13.01c0,1.64.53,3.16,1.41,4.47h146.05Z"/>
  <path class="cls-6" d="m166.86,96.72h45.49c10.89,0,19.72,8.84,19.72,19.72v62.48h-84.94v-62.48c0-10.89,8.84-19.72,19.72-19.72Z"/>
  <path class="cls-12" d="m232.07,179.21H46.29c.72,3.11,3.86,5.44,7.63,5.44h178.16v-5.44Z"/>
  <ellipse class="cls-7" cx="17.34" cy="238.82" rx="5.27" ry="5.18" transform="translate(-66.35 14.47) rotate(-16.3)"/>
  <g>
    <line class="cls-9" x1="123.38" y1="28.72" x2="123.38" y2="50.61"/>
    <line class="cls-9" x1="134.32" y1="39.66" x2="112.44" y2="39.66"/>
  </g>
  <g>
    <line class="cls-8" x1="188.28" y1="18.45" x2="188.28" y2="29.62"/>
    <line class="cls-8" x1="194.49" y1="24.03" x2="182.07" y2="24.03"/>
  </g>
  <rect class="cls-16" x="74.63" y="109.48" width="69.03" height="8.37" rx="2.12" ry="2.12"/>
  <path class="cls-12" d="m121.17,134.81c-5.56,0-10.07,4.6-10.07,10.27s4.51,10.27,10.07,10.27,10.07-4.6,10.07-10.27-4.51-10.27-10.07-10.27Z"/>
  <path class="cls-1" d="m121.17,146.3h0c-1.22,0-2.21-.89-2.21-1.98v-76.54c0-1.09.99-1.98,2.21-1.98h0c1.22,0,2.21.89,2.21,1.98v76.54c0,1.09-.99,1.98-2.21,1.98Z"/>
  <path class="cls-13" d="m94.95,70.88h24.02v14.44h-24.02c-.78,0-1.42-.63-1.42-1.42v-11.61c0-.78.63-1.42,1.42-1.42Z"/>
  <path class="cls-11" d="m90.39,50.99v-.17c0-2.4-2.16-4.34-4.83-4.34H26.88c-2.67,0-4.83,1.94-4.83,4.34v.17c0,2.4,2.16,4.34,4.83,4.34h8.43c2.67,0,4.83,1.94,4.83,4.34h0c0,2.4-2.16,4.34-4.83,4.34H12.64c-2.67,0-4.83,1.94-4.83,4.34v.17c0,2.4,2.16,4.34,4.83,4.34h55.27c2.67,0,4.83-1.94,4.83-4.34v-.17c0-2.4-2.16-4.34-4.83-4.34h-3.09c-2.67,0-4.83-1.94-4.83-4.34h0c0-2.4,2.16-4.34,4.83-4.34h20.74c2.67,0,4.83-1.94,4.83-4.34Z"/>
  <path class="cls-11" d="m216.79,235.18h0c0-1.69,1.53-3.06,3.41-3.06h3.1c2.6,0,4.72-1.9,4.72-4.24h0c0-2.34-2.11-4.24-4.72-4.24h-22.82c-1.84,0-3.33-1.34-3.33-2.99h0c0-1.65,1.49-2.99,3.33-2.99h10.37c2.6,0,4.72-1.9,4.72-4.24h0c0-2.34-2.11-4.24-4.72-4.24h-1.6c-2.55,0-4.63-1.86-4.63-4.16h0c0-2.3,2.07-4.16,4.63-4.16h19.79c2.6,0,4.72-1.9,4.72-4.24h0c0-2.34-2.11-4.24-4.72-4.24h-48.82c-2.6,0-4.72,1.9-4.72,4.24h0c0,2.34,2.11,4.24,4.72,4.24h.76c2.55,0,4.63,1.86,4.63,4.16h0c0,2.3-2.07,4.16-4.63,4.16h-21.64c-2.6,0-4.72,1.9-4.72,4.24h0c0,2.34,2.11,4.24,4.72,4.24h16.2c1.84,0,3.33,1.34,3.33,2.99h0c0,1.65-1.49,2.99-3.33,2.99h-6.44c-2.6,0-4.72,1.9-4.72,4.24h0c0,2.34,2.11,4.24,4.72,4.24h18.7c1.88,0,3.41,1.37,3.41,3.06h0c0,1.69-1.53,3.06-3.41,3.06h-13.31c-2.6,0-4.72,1.9-4.72,4.24h0c0,2.34,2.11,4.24,4.72,4.24h68.02c2.6,0,4.72-1.9,4.72-4.24h0c0-2.34-2.11-4.24-4.72-4.24h-22.29c-1.88,0-3.41-1.37-3.41-3.06Z"/>
  <g>
    <g>
      <path class="cls-3" d="m98.22,28.79h0c0-.77-.67-1.4-1.49-1.4h-14.76v12.7h7.98c.82,0,1.49-.63,1.49-1.4h0c0-.77-.67-1.4-1.49-1.4h-2.14c-.63,0-1.14-.48-1.14-1.07h0c0-.59.51-1.07,1.14-1.07h5.66c.82,0,1.49-.63,1.49-1.4h0c0-.77-.67-1.4-1.49-1.4h-1.73c-.63,0-1.14-.48-1.14-1.07h0c0-.59.51-1.07,1.14-1.07h5c.82,0,1.49-.63,1.49-1.4Z"/>
      <path class="cls-3" d="m20.1,28.79h0c0-.77.67-1.4,1.49-1.4h14.76v12.7h-7.98c-.82,0-1.49-.63-1.49-1.4h0c0-.77.67-1.4,1.49-1.4h2.14c.63,0,1.14-.48,1.14-1.07h0c0-.59-.51-1.07-1.14-1.07h-5.66c-.82,0-1.49-.63-1.49-1.4h0c0-.77.67-1.4,1.49-1.4h1.73c.63,0,1.14-.48,1.14-1.07h0c0-.59-.51-1.07-1.14-1.07h-5c-.82,0-1.49-.63-1.49-1.4Z"/>
    </g>
    <g>
      <rect class="cls-10" x="34.9" y="24.03" width="48.52" height="26.95"/>
      <polygon class="cls-15" points="83.42 50.99 59.16 33.51 34.9 50.99 83.42 50.99"/>
      <path class="cls-13" d="m34.9,24.03l21.93,15.8c1.38.99,3.29.99,4.66,0l21.93-15.8h-48.52Z"/>
    </g>
  </g>
  <g>
    <g>
      <path class="cls-3" d="m249.18,53.14h0c0-1-.9-1.8-2.01-1.8h-19.94v16.37h10.78c1.11,0,2.01-.81,2.01-1.8h0c0-1-.9-1.8-2.01-1.8h-2.89c-.85,0-1.54-.62-1.54-1.39h0c0-.77.69-1.39,1.54-1.39h7.64c1.11,0,2.01-.81,2.01-1.8h0c0-1-.9-1.8-2.01-1.8h-2.34c-.85,0-1.54-.62-1.54-1.39h0c0-.77.69-1.39,1.54-1.39h6.75c1.11,0,2.01-.81,2.01-1.8Z"/>
      <path class="cls-3" d="m143.67,53.14h0c0-1,.9-1.8,2.01-1.8h19.94v16.37h-10.78c-1.11,0-2.01-.81-2.01-1.8h0c0-1,.9-1.8,2.01-1.8h2.89c.85,0,1.54-.62,1.54-1.39h0c0-.77-.69-1.39-1.54-1.39h-7.64c-1.11,0-2.01-.81-2.01-1.8h0c0-1,.9-1.8,2.01-1.8h2.33c.85,0,1.54-.62,1.54-1.39h0c0-.77-.69-1.39-1.54-1.39h-6.75c-1.11,0-2.01-.81-2.01-1.8Z"/>
    </g>
    <g>
      <rect class="cls-10" x="163.66" y="47.01" width="65.54" height="34.75"/>
      <polygon class="cls-15" points="229.19 81.76 196.42 59.23 163.66 81.76 229.19 81.76"/>
      <path class="cls-13" d="m163.66,47.01l29.62,20.37c1.86,1.28,4.44,1.28,6.3,0l29.62-20.37h-65.54Z"/>
    </g>
  </g>
  <g>
    <path class="cls-4" d="m206.36,133.64h-26.05c-2.43,0-4.4,2.03-4.4,4.53h0c0,2.5,1.97,4.53,4.4,4.53h26.05c2.43,0,4.4-2.03,4.4-4.53h0c0-2.5-1.97-4.53-4.4-4.53Z"/>
    <path class="cls-14" d="m180.31,133.64h0c-2.43,0-4.4,2.03-4.4,4.53h0c0,2.5,1.97,4.53,4.4,4.53h0c2.43,0,4.4-2.03,4.4-4.53h0c0-2.5-1.97-4.53-4.4-4.53Z"/>
  </g>
  <g>
    <rect class="cls-4" x="163.13" y="157.84" width="58.11" height="10.94" rx="2.79" ry="2.79"/>
    <path class="cls-14" d="m221.24,161.98h-58.11c0-2.29,2.07-4.15,4.62-4.15h48.88c2.55,0,4.62,1.86,4.62,4.15h0Z"/>
  </g>
  <ellipse class="cls-7" cx="47.82" cy="91.84" rx="5.27" ry="5.18" transform="translate(-23.86 17.12) rotate(-16.3)"/>
</svg>